# Blender v2.76 (sub 0) OBJ File: 'models.blend'
# www.blender.org
o green_circle
v 0.000000 -1.000000 1.000000
v 0.000000 -1.000000 -1.000000
v 0.500000 -0.866025 1.000000
v 0.500000 -0.866025 -1.000000
v 0.866025 -0.500000 1.000000
v 0.866025 -0.500000 -1.000000
v 1.000000 0.000000 1.000000
v 1.000000 0.000000 -1.000000
v 0.866025 0.500000 1.000000
v 0.866025 0.500000 -1.000000
v 0.500000 0.866025 1.000000
v 0.500000 0.866025 -1.000000
v 0.000000 1.000000 1.000000
v 0.000000 1.000000 -1.000000
v -0.500000 0.866026 1.000000
v -0.500000 0.866025 -1.000000
v -0.866025 0.500000 1.000000
v -0.866025 0.500000 -1.000000
v -1.000000 0.000001 1.000000
v -1.000000 0.000000 -1.000000
v -0.866026 -0.499999 1.000000
v -0.866026 -0.500000 -1.000000
v -0.500001 -0.866025 1.000000
v -0.500001 -0.866025 -1.000000
vt 0.242280 0.509674
vt 0.242280 0.740326
vt 0.011627 0.740326
vt 0.243958 0.504089
vt 0.243958 0.742005
vt 0.006042 0.742005
vt 0.006115 0.508068
vt 0.239979 0.508068
vt 0.239979 0.741932
vt 0.241168 0.508832
vt 0.241168 0.745074
vt 0.004926 0.745074
vt 0.236715 0.507426
vt 0.236715 0.738668
vt 0.005473 0.738668
vt 0.234348 0.511899
vt 0.236148 0.740207
vt 0.007840 0.742007
vt 0.241305 0.744812
vt 0.003173 0.744747
vt 0.003238 0.506615
vt 0.007483 0.742347
vt 0.005700 0.509436
vt 0.238611 0.507653
vt 0.009235 0.743492
vt 0.006508 0.513142
vt 0.236858 0.510414
vt 0.011930 0.735693
vt 0.012354 0.506071
vt 0.241976 0.506495
vt 0.223521 0.567835
vt 0.124008 0.743525
vt 0.021613 0.569499
vt 0.008370 0.742808
vt 0.007192 0.512276
vt 0.237724 0.511099
vt 0.014793 0.731343
vt 0.012798 0.512840
vt 0.231301 0.510845
vt 0.241805 0.625228
vt 0.012101 0.628678
vt 0.068034 0.528351
vt 0.011627 0.509674
vt 0.006042 0.504089
vt 0.006115 0.741932
vt 0.004926 0.508832
vt 0.005473 0.507426
vt 0.006040 0.513699
vt 0.241370 0.506680
vt 0.240394 0.740564
vt 0.239586 0.740764
vt 0.241552 0.736117
vt 0.063929 0.526479
vt 0.122086 0.510381
vt 0.180501 0.525519
vt 0.239619 0.625993
vt 0.224481 0.684407
vt 0.182165 0.727427
vt 0.065593 0.728388
vt 0.022573 0.686071
vt 0.006475 0.627914
vt 0.238902 0.741630
vt 0.233296 0.729348
vt 0.125229 0.512101
vt 0.182886 0.526626
vt 0.225556 0.568033
vt 0.227280 0.682886
vt 0.185873 0.725556
vt 0.128678 0.741805
vt 0.071021 0.727280
vt 0.028351 0.685873
vt 0.026626 0.571021
vn 0.258800 -0.965900 0.000000
vn 0.707100 -0.707100 0.000000
vn 0.965900 -0.258800 0.000000
vn 0.965900 0.258800 -0.000000
vn 0.707100 0.707100 -0.000000
vn 0.258800 0.965900 -0.000000
vn -0.258800 0.965900 0.000000
vn -0.707100 0.707100 -0.000000
vn -0.965900 0.258800 -0.000000
vn -0.965900 -0.258800 0.000000
vn 0.000000 0.000000 -1.000000
vn -0.258800 -0.965900 0.000000
vn -0.707100 -0.707100 0.000000
vn 0.000000 0.000000 1.000000
s off
f 2/1/1 4/2/1 3/3/1
f 4/4/2 6/5/2 5/6/2
f 5/7/3 6/8/3 8/9/3
f 8/10/4 10/11/4 9/12/4
f 10/13/5 12/14/5 11/15/5
f 12/16/6 14/17/6 13/18/6
f 13/19/7 14/20/7 16/21/7
f 16/22/8 18/23/8 17/24/8
f 18/25/9 20/26/9 19/27/9
f 20/28/10 22/29/10 21/30/10
f 22/31/11 14/32/11 6/33/11
f 24/34/12 2/35/12 1/36/12
f 22/37/13 24/38/13 23/39/13
f 7/40/14 19/41/14 23/42/14
f 1/43/1 2/1/1 3/3/1
f 3/44/2 4/4/2 5/6/2
f 7/45/3 5/7/3 8/9/3
f 7/46/4 8/10/4 9/12/4
f 9/47/5 10/13/5 11/15/5
f 11/48/6 12/16/6 13/18/6
f 15/49/7 13/19/7 16/21/7
f 15/50/8 16/22/8 17/24/8
f 17/51/9 18/25/9 19/27/9
f 19/52/10 20/28/10 21/30/10
f 6/33/11 4/53/11 2/54/11
f 2/54/11 24/55/11 22/31/11
f 22/31/11 20/56/11 18/57/11
f 18/57/11 16/58/11 14/32/11
f 14/32/11 12/59/11 10/60/11
f 10/60/11 8/61/11 6/33/11
f 6/33/11 2/54/11 22/31/11
f 22/31/11 18/57/11 14/32/11
f 14/32/11 10/60/11 6/33/11
f 23/62/12 24/34/12 1/36/12
f 21/63/13 22/37/13 23/39/13
f 23/42/14 1/64/14 3/65/14
f 3/65/14 5/66/14 7/40/14
f 7/40/14 9/67/14 11/68/14
f 11/68/14 13/69/14 7/40/14
f 15/70/14 17/71/14 19/41/14
f 19/41/14 21/72/14 23/42/14
f 23/42/14 3/65/14 7/40/14
f 7/40/14 13/69/14 15/70/14
f 15/70/14 19/41/14 7/40/14
o yellow_star
v -0.627838 -1.000161 1.000000
v -0.995978 0.233387 1.000000
v -0.627838 -1.000161 -1.000000
v -0.995978 0.233387 -1.000000
v 0.627838 -1.000161 1.000000
v 0.995978 0.233387 1.000000
v 0.627838 -1.000161 -1.000000
v 0.995978 0.233387 -1.000000
v -0.491909 -0.286670 1.000000
v -0.491909 -0.286670 -1.000000
v 0.000000 1.000000 -1.000000
v 0.491909 -0.286670 -1.000000
v 0.000000 -0.658264 -1.000000
v 0.491909 -0.286670 1.000000
v 0.000000 1.000000 1.000000
v 0.000000 -0.658267 1.000000
v 0.304089 0.329939 -1.000000
v -0.304089 0.329939 1.000000
v -0.304089 0.329939 -1.000000
v 0.304089 0.329939 1.000000
vt 0.315390 0.589005
vt 0.435577 0.589005
vt 0.412632 0.664332
vt 0.317970 0.592646
vt 0.435741 0.592646
vt 0.413257 0.666459
vt 0.488137 0.510928
vt 0.489235 0.738511
vt 0.265769 0.739590
vt 0.270660 0.743353
vt 0.268217 0.498388
vt 0.483247 0.496244
vt 0.489998 0.503795
vt 0.489998 0.742817
vt 0.258049 0.742817
vt 0.253656 0.738008
vt 0.253656 0.501589
vt 0.490484 0.501589
vt 0.493500 0.502034
vt 0.493500 0.738868
vt 0.254547 0.738868
vt 0.487913 0.501908
vt 0.487913 0.740855
vt 0.256228 0.740855
vt 0.268799 0.519306
vt 0.481472 0.519587
vt 0.481201 0.725501
vt 0.495043 0.743798
vt 0.258863 0.743798
vt 0.258863 0.506778
vt 0.488997 0.505872
vt 0.488997 0.741981
vt 0.255144 0.741980
vt 0.486656 0.742895
vt 0.256605 0.742043
vt 0.257484 0.504957
vt 0.338335 0.664332
vt 0.253811 0.652537
vt 0.375484 0.746189
vt 0.497156 0.652537
vt 0.375484 0.543610
vt 0.452183 0.501842
vt 0.298785 0.501842
vt 0.340454 0.666459
vt 0.257629 0.654901
vt 0.376855 0.746671
vt 0.496082 0.654901
vt 0.376855 0.548163
vt 0.452012 0.507236
vt 0.301698 0.507236
vt 0.264671 0.512007
vt 0.485690 0.741209
vt 0.258049 0.503795
vt 0.490484 0.738008
vt 0.254547 0.502034
vt 0.256228 0.501908
vt 0.268528 0.725221
vt 0.495043 0.506778
vt 0.255144 0.505872
vt 0.487535 0.505809
vn 0.000000 0.000000 -1.000000
vn 0.000000 0.000000 1.000000
vn -0.910600 0.413300 0.000000
vn -0.138200 0.990400 0.000000
vn 0.910600 0.413300 0.000000
vn 0.138200 0.990400 0.000000
vn 0.718100 -0.696000 0.000000
vn 0.982300 0.187100 0.000000
vn -0.718100 -0.696000 0.000000
vn -0.982300 0.187100 0.000000
vn 0.478200 -0.878200 -0.000000
vn -0.478200 -0.878200 -0.000000
s off
f 36/73/15 34/74/15 43/75/15
f 33/76/16 38/77/16 44/78/16
f 42/79/17 39/80/17 35/81/17
f 43/82/18 28/83/18 26/84/18
f 41/85/19 35/86/19 39/87/19
f 44/88/20 30/89/20 32/90/20
f 36/91/21 32/92/21 30/93/21
f 31/94/22 36/95/22 38/96/22
f 34/97/23 33/98/23 26/99/23
f 33/100/24 34/101/24 27/102/24
f 27/103/25 37/104/25 40/105/25
f 40/106/26 37/107/26 31/108/26
f 41/109/15 32/110/15 36/73/15
f 43/75/15 35/111/15 41/109/15
f 34/74/15 28/112/15 43/75/15
f 37/113/15 27/114/15 34/74/15
f 36/73/15 31/115/15 37/113/15
f 43/75/15 41/109/15 36/73/15
f 37/113/15 34/74/15 36/73/15
f 42/116/16 26/117/16 33/76/16
f 44/78/16 39/118/16 42/116/16
f 38/77/16 30/119/16 44/78/16
f 40/120/16 29/121/16 38/77/16
f 33/76/16 25/122/16 40/120/16
f 44/78/16 42/116/16 33/76/16
f 40/120/16 38/77/16 33/76/16
f 43/123/17 42/79/17 35/81/17
f 42/124/18 43/82/18 26/84/18
f 44/125/19 41/85/19 39/87/19
f 41/126/20 44/88/20 32/90/20
f 38/127/21 36/91/21 30/93/21
f 29/128/22 31/94/22 38/96/22
f 28/129/23 34/97/23 26/99/23
f 25/130/24 33/100/24 27/102/24
f 25/131/25 27/103/25 40/105/25
f 29/132/26 40/106/26 31/108/26
o cyan_up_arrow
v -1.000000 -1.000000 1.000000
v 0.000000 1.000000 1.000000
v -1.000000 -1.000000 -1.000000
v 0.000000 1.000000 -1.000000
v 1.000000 -1.000000 1.000000
v 1.000000 -1.000000 -1.000000
vt 0.757420 0.993725
vt 0.755020 0.758970
vt 0.989775 0.756570
vt 0.872134 0.987524
vt 0.870584 0.993725
vt 0.992174 0.991325
vn -0.894400 0.447200 0.000000
vn 0.894400 0.447200 0.000000
vn 0.000000 -1.000000 0.000000
vn 0.000000 0.000000 1.000000
vn 0.000000 0.000000 -1.000000
s off
f 48/133/27 47/134/27 45/135/27
f 46/133/28 49/134/28 50/135/28
f 47/133/29 50/134/29 49/135/29
f 46/136/30 45/134/30 49/135/30
f 48/137/31 50/134/31 47/135/31
f 46/138/27 48/133/27 45/135/27
f 48/138/28 46/133/28 50/135/28
f 45/138/29 47/133/29 49/135/29
o blue_down_arrow
v 0.000000 -1.000000 1.000000
v -1.000000 1.000000 1.000000
v 0.000000 -1.000000 -1.000000
v -1.000000 1.000000 -1.000000
v 1.000000 1.000000 1.000000
v 1.000000 1.000000 -1.000000
vt 0.508548 0.989707
vt 0.509457 0.756579
vt 0.742584 0.757488
vt 0.741675 0.990615
vt 0.626319 0.760588
vt 0.621669 0.765239
vn -0.894400 -0.447200 0.000000
vn 0.894400 -0.447200 0.000000
vn 0.000000 0.000000 1.000000
vn 0.000000 1.000000 0.000000
vn 0.000000 0.000000 -1.000000
s off
f 54/139/32 53/140/32 51/141/32
f 55/139/33 51/140/33 53/141/33
f 55/142/34 52/139/34 51/143/34
f 56/139/35 54/140/35 52/141/35
f 54/142/36 56/139/36 53/144/36
f 52/142/32 54/139/32 51/141/32
f 56/142/33 55/139/33 53/141/33
f 55/142/35 56/139/35 52/141/35
o purple_diamond
v 0.000000 -1.000000 1.000000
v 0.000000 1.000000 1.000000
v 0.000000 -1.000000 -1.000000
v 0.000000 1.000000 -1.000000
v -1.000000 0.000000 1.000000
v -1.000000 0.000000 -1.000000
v 1.000000 0.000000 -1.000000
v 1.000000 0.000000 1.000000
vt 0.256539 0.873800
vt 0.495430 0.876495
vt 0.494083 0.995940
vt 0.255191 0.993246
vt 0.257886 0.754355
vt 0.496777 0.757049
vt 0.383408 0.755747
vt 0.493346 0.879868
vt 0.369200 0.994548
vt 0.379408 0.755694
vt 0.495064 0.879584
vt 0.371376 0.995326
vt 0.260812 0.870502
vt 0.257241 0.873026
vn -0.707100 0.707100 0.000000
vn 0.707100 0.707100 0.000000
vn -0.707100 -0.707100 0.000000
vn 0.000000 0.000000 -1.000000
vn 0.000000 0.000000 1.000000
vn 0.707100 -0.707100 0.000000
s off
f 62/145/37 61/146/37 58/147/37
f 58/148/38 64/145/38 63/146/38
f 62/145/39 59/149/39 57/150/39
f 59/151/40 62/152/40 60/153/40
f 57/154/41 64/155/41 58/156/41
f 64/145/42 57/149/42 59/150/42
f 60/148/37 62/145/37 58/147/37
f 60/147/38 58/148/38 63/146/38
f 61/146/39 62/145/39 57/150/39
f 63/157/40 59/151/40 60/153/40
f 61/158/41 57/154/41 58/156/41
f 63/146/42 64/145/42 59/150/42
o red_heart
v 0.000000 -1.000000 1.000000
v -0.629017 -0.501909 1.000000
v 0.000000 -1.000000 -1.000000
v -0.629017 -0.501909 -1.000000
v 0.629017 -0.501909 1.000000
v 0.629017 -0.501909 -1.000000
v -0.948710 0.001068 1.000000
v -0.948710 0.001068 -1.000000
v 0.948710 0.001068 1.000000
v 0.948710 0.001068 -1.000000
v -0.973973 0.294058 1.000000
v -0.973973 0.294058 -1.000000
v 0.974742 0.294058 1.000000
v 0.974742 0.294058 -1.000000
v -0.933109 0.558562 1.000000
v -0.933109 0.558562 -1.000000
v 0.907923 0.558562 1.000000
v 0.907923 0.558562 -1.000000
v -0.000818 0.558562 -1.000000
v -0.000818 0.558562 1.000000
v 0.816341 0.702985 1.000000
v 0.816341 0.702985 -1.000000
v 0.078990 0.702985 -1.000000
v 0.078990 0.702985 1.000000
v -0.821903 0.697895 1.000000
v -0.821903 0.697895 -1.000000
v -0.076700 0.697895 -1.000000
v -0.076700 0.697895 1.000000
v 0.567708 0.856054 1.000000
v 0.567708 0.856054 -1.000000
v 0.327622 0.856054 -1.000000
v 0.327622 0.856054 1.000000
v -0.589951 0.849002 1.000000
v -0.589951 0.849002 -1.000000
v -0.308652 0.849002 -1.000000
v -0.308652 0.849002 1.000000
vt 0.003920 0.996080
vt 0.005421 0.755716
vt 0.245785 0.755716
vt 0.128705 0.954483
vt 0.011805 0.864234
vt 0.051350 0.794140
vt 0.247213 0.753893
vt 0.245260 0.995104
vt 0.246585 0.892920
vt 0.133602 0.956415
vt 0.220458 0.861260
vt 0.245260 0.753893
vt 0.242331 0.752916
vt 0.244284 0.995104
vt 0.244284 0.752916
vt 0.243307 0.997057
vt 0.245333 0.994632
vt 0.004214 0.996178
vt 0.006086 0.755016
vt 0.244015 0.756405
vt 0.244863 0.994833
vt 0.003284 0.995846
vt 0.004247 0.995276
vt 0.004869 0.755039
vt 0.244086 0.755674
vt 0.002218 0.994249
vt 0.003927 0.754021
vt 0.247092 0.754775
vt 0.246237 0.752037
vt 0.244578 0.995104
vt 0.005958 0.995976
vt 0.242099 0.755736
vt 0.243270 0.993040
vt 0.003045 0.995213
vt 0.003114 0.994169
vt 0.007912 0.753951
vt 0.244242 0.753851
vt 0.004277 0.996080
vt 0.003523 0.753006
vt 0.245037 0.753693
vt 0.242498 0.995223
vt 0.002289 0.995425
vt 0.002751 0.755061
vt 0.246103 0.756834
vt 0.243190 0.995099
vt 0.001979 0.994116
vt 0.003073 0.996080
vt 0.004049 0.755846
vt 0.244284 0.754869
vt 0.241812 0.991974
vt 0.003981 0.996080
vt 0.002776 0.753901
vt 0.244284 0.996080
vt 0.125783 0.763047
vt 0.197805 0.790929
vt 0.235169 0.857952
vt 0.241297 0.902874
vt 0.238373 0.935780
vt 0.232128 0.971823
vt 0.198074 0.987856
vt 0.172575 0.982338
vt 0.104605 0.976881
vt 0.079883 0.988307
vt 0.153307 0.971223
vt 0.006173 0.910581
vt 0.030041 0.975129
vt 0.015579 0.950659
vt 0.054087 0.988060
vt 0.001967 0.752916
vt 0.057698 0.804822
vt 0.126301 0.759740
vt 0.201715 0.806520
vt 0.237697 0.940138
vt 0.227898 0.959650
vt 0.210147 0.977653
vt 0.167942 0.985468
vt 0.149731 0.970598
vt 0.118997 0.970838
vt 0.094664 0.988677
vt 0.056856 0.981348
vt 0.036021 0.968920
vt 0.019514 0.949415
vt 0.020026 0.914755
vt 0.028268 0.867416
vt 0.003920 0.757799
vt 0.003920 0.753893
vt 0.003920 0.755846
vt 0.246450 0.754430
vt 0.005752 0.753348
vt 0.242488 0.996888
vt 0.243430 0.994989
vt 0.002261 0.752916
vt 0.000907 0.758895
vt 0.243351 0.994084
vt 0.243330 0.995538
vt 0.243961 0.755590
vt 0.004908 0.753897
vt 0.241354 0.995104
vt 0.245489 0.752725
vn -0.620800 -0.784000 0.000000
vn 0.620800 -0.784000 0.000000
vn 0.000000 0.000000 -1.000000
vn 0.844000 -0.536400 0.000000
vn 0.000000 -0.000000 1.000000
vn -0.844000 -0.536400 0.000000
vn 0.996100 -0.088500 0.000000
vn -0.996300 -0.085900 0.000000
vn 0.969500 0.244900 0.000000
vn -0.988300 0.152700 0.000000
vn -0.875300 0.483700 0.000000
vn -0.524300 0.851600 0.000000
vn 0.844500 0.535500 0.000000
vn -0.781600 0.623800 0.000000
vn 0.878200 0.478300 0.000000
vn 0.000000 1.000000 0.000000
vn -0.545800 0.837900 0.000000
vn 0.545800 0.837900 0.000000
vn 0.524300 0.851600 0.000000
s off
f 68/159/43 67/160/43 65/161/43
f 69/159/44 65/160/44 67/161/44
f 83/162/45 74/163/45 70/164/45
f 70/165/46 74/166/46 73/159/46
f 77/167/47 84/168/47 73/169/47
f 66/170/48 71/166/48 72/159/48
f 74/171/49 78/172/49 77/159/49
f 71/173/50 75/174/50 76/159/50
f 82/175/51 81/176/51 77/177/51
f 75/178/52 79/179/52 80/180/52
f 84/181/53 88/182/53 87/183/53
f 88/184/54 96/185/54 95/186/54
f 82/187/55 86/188/55 85/189/55
f 79/190/56 89/191/56 90/192/56
f 83/193/57 91/194/57 92/195/57
f 96/196/58 93/197/58 94/198/58
f 100/199/58 99/200/58 98/201/58
f 89/202/59 97/203/59 98/204/59
f 91/205/60 99/206/60 100/207/60
f 94/208/61 93/209/61 85/210/61
f 66/211/43 68/159/43 65/161/43
f 70/211/44 69/159/44 67/161/44
f 67/212/45 68/213/45 70/164/45
f 72/214/45 76/215/45 83/162/45
f 80/216/45 90/217/45 76/215/45
f 98/218/45 99/219/45 83/162/45
f 83/162/45 87/220/45 95/221/45
f 99/219/45 91/222/45 83/162/45
f 76/215/45 90/217/45 83/162/45
f 70/164/45 68/213/45 83/162/45
f 78/223/45 74/163/45 83/162/45
f 86/224/45 82/225/45 83/162/45
f 95/221/45 94/226/45 83/162/45
f 90/217/45 98/218/45 83/162/45
f 83/162/45 94/226/45 86/224/45
f 82/225/45 78/223/45 83/162/45
f 68/213/45 72/214/45 83/162/45
f 69/227/46 70/165/46 73/159/46
f 66/228/47 65/229/47 69/230/47
f 69/230/47 73/169/47 84/168/47
f 77/167/47 81/231/47 84/168/47
f 85/232/47 93/233/47 84/168/47
f 96/234/47 88/235/47 84/168/47
f 84/168/47 92/236/47 100/237/47
f 100/237/47 97/238/47 84/168/47
f 89/239/47 79/240/47 75/241/47
f 75/241/47 71/242/47 84/168/47
f 66/228/47 69/230/47 84/168/47
f 81/231/47 85/232/47 84/168/47
f 84/168/47 97/238/47 89/239/47
f 93/233/47 96/234/47 84/168/47
f 71/242/47 66/228/47 84/168/47
f 84/168/47 89/239/47 75/241/47
f 68/243/48 66/170/48 72/159/48
f 73/244/49 74/171/49 77/159/49
f 72/245/50 71/173/50 76/159/50
f 78/246/51 82/175/51 77/177/51
f 76/247/52 75/178/52 80/180/52
f 83/248/53 84/181/53 87/183/53
f 87/249/54 88/184/54 95/186/54
f 81/250/55 82/187/55 85/189/55
f 80/251/56 79/190/56 90/192/56
f 84/252/57 83/193/57 92/195/57
f 95/253/58 96/196/58 94/198/58
f 97/254/58 100/199/58 98/201/58
f 90/255/59 89/202/59 98/204/59
f 92/256/60 91/205/60 100/207/60
f 86/257/61 94/208/61 85/210/61
